<?xml version="1.0" standalone="no"?>
<svg xmlns="http://www.w3.org/2000/svg" viewBox="0 0 37.792 43.639" width="37.792" height="43.639"><polygon fill="none" stroke="#fffb9b" stroke-width="3" points="36.292,11.65975 36.292,31.97925 18.896,42.139 1.5,31.97925 1.5,11.65975 18.896,1.5"></polygon><path fill="#fffb9b" fill-rule="nonzero" d="M9.70 10.61L9.70 10.61L12.79 10.61Q12.79 13.87 11.16 15.62Q9.53 17.38 6.55 17.38L6.55 17.38Q0 17.38 0 9.67L0 9.67L0 8.23Q0 2.16 3.36 0.62L3.36 0.62Q4.68 0 6.55 0L6.55 0Q9.29 0 11.00 1.50Q12.72 3.00 12.72 5.83L12.72 5.83L9.60 5.83Q9.34 4.42 8.66 3.70Q7.99 2.98 6.55 2.98L6.55 2.98Q4.87 2.98 4.06 4.03L4.06 4.03Q3.48 4.78 3.38 6.58L3.38 6.58Q3.34 7.15 3.34 8.14L3.34 8.14L3.34 9.62Q3.34 12.38 4.10 13.39L4.10 13.39Q4.90 14.40 6.56 14.40Q8.23 14.40 8.87 13.48Q9.50 12.55 9.70 10.61Z" transform="translate(12.5, 13.132)"></path></svg>